<?xml version="1.0" encoding="utf-8"?>
<!-- Generator: Adobe Illustrator 16.0.0, SVG Export Plug-In . SVG Version: 6.00 Build 0)  -->
<!DOCTYPE svg PUBLIC "-//W3C//DTD SVG 1.1//EN" "http://www.w3.org/Graphics/SVG/1.1/DTD/svg11.dtd">
<svg version="1.1"
	 id="svg2" sodipodi:docname="Google_Chrome_2011_Logo SVG.svg" inkscape:version="0.48.1 r9760" xmlns:dc="http://purl.org/dc/elements/1.1/" xmlns:cc="http://creativecommons.org/ns#" xmlns:rdf="http://www.w3.org/1999/02/22-rdf-syntax-ns#" xmlns:svg="http://www.w3.org/2000/svg" xmlns:sodipodi="http://sodipodi.sourceforge.net/DTD/sodipodi-0.dtd" xmlns:inkscape="http://www.inkscape.org/namespaces/inkscape"
	 xmlns="http://www.w3.org/2000/svg" xmlns:xlink="http://www.w3.org/1999/xlink" x="0px" y="0px" width="256px" height="256px"
	 viewBox="0 0 256 256" enable-background="new 0 0 256 256" xml:space="preserve">
<sodipodi:namedview  inkscape:current-layer="svg2" inkscape:window-maximized="0" inkscape:window-y="0" inkscape:window-x="0" inkscape:window-height="480" inkscape:window-width="640" inkscape:pageshadow="2" inkscape:pageopacity="0" inkscape:cy="128" inkscape:cx="128" inkscape:zoom="1.140625" showgrid="false" guidetolerance="10" gridtolerance="10" objecttolerance="10" bordercolor="#666666" pagecolor="#ffffff" borderopacity="1" id="namedview67">
	</sodipodi:namedview>
<g>
	<circle id="circle47" display="none" fill="#FFFFFF" cx="128" cy="128" r="110"/>
	<path id="path49" display="none" fill-opacity="0.1" d="M198,148c0-38.66-31.34-70-70-70s-70,31.34-70,70h20
		c0-27.614,22.386-50,50-50s50,22.386,50,50"/>
	<circle id="circle51" display="none" fill-opacity="0.1" cx="133" cy="142" r="38"/>
	
		<linearGradient id="circle53_1_" gradientUnits="userSpaceOnUse" x1="-18.939" y1="274.9326" x2="-18.939" y2="273.9326" gradientTransform="matrix(82 0 0 -82 1681 22631.5)">
		<stop  offset="0" style="stop-color:#81B4E0"/>
		<stop  offset="1" style="stop-color:#0C5A94"/>
	</linearGradient>
	<circle id="circle53" fill="url(#circle53_1_)" cx="128" cy="128" r="41"/>
	
		<linearGradient id="path55_1_" gradientUnits="userSpaceOnUse" x1="279" y1="-30.0005" x2="279" y2="-121.0005" gradientTransform="matrix(1 0 0 -1 -147.5 -14)">
		<stop  offset="0" style="stop-color:#F06B59"/>
		<stop  offset="1" style="stop-color:#DF2227"/>
	</linearGradient>
	<path id="path55" fill="url(#path55_1_)" d="M228,78C200.47,22.608,133.248,0.022,77.856,27.553C60.585,36.137,45.823,49.036,35,65
		l45,78c-8.287-26.341,6.349-54.413,32.69-62.7c4.633-1.458,9.454-2.232,14.31-2.3"/>
	
		<linearGradient id="path57_1_" gradientUnits="userSpaceOnUse" x1="190.7695" y1="-221.6099" x2="236.7695" y2="-145.6099" gradientTransform="matrix(1 0 0 -1 -147.5 -14)">
		<stop  offset="0" style="stop-color:#388B41"/>
		<stop  offset="1" style="stop-color:#4CB749"/>
	</linearGradient>
	<path id="path57" fill="url(#path57_1_)" d="M35,65C0.557,116.379,14.287,185.952,65.666,220.395
		C81.562,231.052,99.924,237.457,119,239l47-80c-17.573,21.301-49.087,24.322-70.388,6.749C88.377,159.78,82.967,151.897,80,143"/>
	
		<linearGradient id="path59_1_" gradientUnits="userSpaceOnUse" x1="344.8691" y1="-229.6938" x2="295.8695" y2="-111.6948" gradientTransform="matrix(1 0 0 -1 -147.5 -14)">
		<stop  offset="0" style="stop-color:#E4B022"/>
		<stop  offset="0.3" style="stop-color:#FCD209"/>
	</linearGradient>
	<path id="path59" fill="url(#path59_1_)" d="M119,239c61.68,4.663,115.461-41.559,120.125-103.238
		C240.629,115.861,236.789,95.919,228,78H127c27.613,0.127,49.896,22.615,49.77,50.229c-0.051,11.172-3.843,22.005-10.77,30.771"/>
	
		<linearGradient id="path61_1_" gradientUnits="userSpaceOnUse" x1="206" y1="-153.9995" x2="206" y2="-74" gradientTransform="matrix(1 0 0 -1 -147.5 -14)">
		<stop  offset="0" style="stop-color:#000000;stop-opacity:0.15"/>
		<stop  offset="0.3" style="stop-color:#000000;stop-opacity:0.06"/>
		<stop  offset="1" style="stop-color:#000000;stop-opacity:0.03"/>
	</linearGradient>
	<path id="path61" fill="url(#path61_1_)" d="M35,65l45,78c-3.333-11.219-2.625-23.25,2-34L37,62"/>
	
		<linearGradient id="path63_1_" gradientUnits="userSpaceOnUse" x1="316.4209" y1="-179.834" x2="261.4215" y2="-235.8334" gradientTransform="matrix(1 0 0 -1 -147.5 -14)">
		<stop  offset="0" style="stop-color:#000000;stop-opacity:0.15"/>
		<stop  offset="0.3" style="stop-color:#000000;stop-opacity:0.06"/>
		<stop  offset="1" style="stop-color:#000000;stop-opacity:0.03"/>
	</linearGradient>
	<path id="path63" fill="url(#path63_1_)" d="M119,239l47-80c-7.415,8.844-17.661,14.85-29,17l-20,63"/>
	
		<linearGradient id="path65_1_" gradientUnits="userSpaceOnUse" x1="315.625" y1="-195.9526" x2="323.6253" y2="-116.9496" gradientTransform="matrix(1 0 0 -1 -147.5 -14)">
		<stop  offset="0" style="stop-color:#000000;stop-opacity:0.15"/>
		<stop  offset="0.3" style="stop-color:#000000;stop-opacity:0.06"/>
		<stop  offset="1" style="stop-color:#000000;stop-opacity:0.03"/>
	</linearGradient>
	<path id="path65" fill="url(#path65_1_)" d="M228,78H127c15.213,0.07,29.567,7.063,39,19l64-16"/>
</g>
</svg>
